<?xml version="1.0" encoding="UTF-8" standalone="no"?>
<svg
   xmlns:dc="http://purl.org/dc/elements/1.1/"
   xmlns:cc="http://creativecommons.org/ns#"
   xmlns:rdf="http://www.w3.org/1999/02/22-rdf-syntax-ns#"
   xmlns:svg="http://www.w3.org/2000/svg"
   xmlns="http://www.w3.org/2000/svg"
   viewBox="0 0 124.14907 96.68573"
   height="96.68573"
   width="124.14907"
   xml:space="preserve"
   id="svg2"
   version="1.1"><metadata
     id="metadata8"><rdf:RDF><cc:Work
         rdf:about=""><dc:format>image/svg+xml</dc:format><dc:type
           rdf:resource="http://purl.org/dc/dcmitype/StillImage" /></cc:Work></rdf:RDF></metadata><defs
     id="defs6"><linearGradient
       id="linearGradient28"
       spreadMethod="pad"
       gradientTransform="matrix(33.772114,0,0,-33.772114,30.917208,43.564106)"
       gradientUnits="userSpaceOnUse"
       y2="0"
       x2="1"
       y1="0"
       x1="0"><stop
         id="stop24"
         offset="0"
         style="stop-opacity:1;stop-color:#7d0452" /><stop
         id="stop26"
         offset="1"
         style="stop-opacity:1;stop-color:#bf1653" /></linearGradient><linearGradient
       id="linearGradient48"
       spreadMethod="pad"
       gradientTransform="matrix(33.772114,0,0,-33.772114,30.917208,54.169342)"
       gradientUnits="userSpaceOnUse"
       y2="0"
       x2="1"
       y1="0"
       x1="0"><stop
         id="stop44"
         offset="0"
         style="stop-opacity:1;stop-color:#7d0452" /><stop
         id="stop46"
         offset="1"
         style="stop-opacity:1;stop-color:#bf1653" /></linearGradient><linearGradient
       id="linearGradient68"
       spreadMethod="pad"
       gradientTransform="matrix(-56.766579,0,0,56.766579,75.917206,53.415291)"
       gradientUnits="userSpaceOnUse"
       y2="0"
       x2="1"
       y1="0"
       x1="0"><stop
         id="stop64"
         offset="0"
         style="stop-opacity:1;stop-color:#7d0452" /><stop
         id="stop66"
         offset="1"
         style="stop-opacity:1;stop-color:#bf1653" /></linearGradient><linearGradient
       id="linearGradient88"
       spreadMethod="pad"
       gradientTransform="matrix(-56.766579,0,0,56.766579,75.917206,54.16935)"
       gradientUnits="userSpaceOnUse"
       y2="0"
       x2="1"
       y1="0"
       x1="0"><stop
         id="stop84"
         offset="0"
         style="stop-opacity:1;stop-color:#7d0452" /><stop
         id="stop86"
         offset="1"
         style="stop-opacity:1;stop-color:#bf1653" /></linearGradient><clipPath
       id="clipPath98"
       clipPathUnits="userSpaceOnUse"><path
         id="path96"
         d="M 0,72.514 H 93.112 V 0 H 0 Z" /></clipPath></defs><g
     transform="matrix(1.3333333,0,0,-1.3333333,0,96.685733)"
     id="g10"><g
       id="g12"><g
         id="g14"><g
           id="g20"><g
             id="g22"><path
               id="path30"
               style="fill:url(#linearGradient28);stroke:none"
               d="M 31.108,51.304 V 35.824 H 35.25 V 46.04 Z" /></g></g></g></g><g
       id="g32"><g
         id="g34"><g
           id="g40"><g
             id="g42"><path
               id="path50"
               style="fill:url(#linearGradient48);stroke:none"
               d="M 61.001,72.514 47.974,56.05 34.944,72.514 h -3.836 v -5.669 l 4.142,-5.263 v 4.094 L 47.974,49.507 60.696,65.676 V 35.824 h 4.143 v 36.69 z" /></g></g></g></g><g
       id="g52"><g
         id="g54"><g
           id="g60"><g
             id="g62"><path
               id="path70"
               style="fill:url(#linearGradient68);stroke:none"
               d="m 19.273,72.514 v -36.69 h 4.141 v 29.701 l 24.56,-31.209 9.961,12.659 V 53.55 L 47.974,40.872 23.11,72.514 Z" /></g></g></g></g><g
       id="g72"><g
         id="g74"><g
           id="g80"><g
             id="g82"><path
               id="path90"
               style="fill:url(#linearGradient88);stroke:none"
               d="M 72.835,72.514 67.6,65.851 v -6.593 l 4.931,6.267 V 35.824 h 4.143 v 36.69 z" /></g></g></g></g><g
       id="g92"><g
         clip-path="url(#clipPath98)"
         id="g94"><g
           transform="translate(12.5509,1.8926)"
           id="g100"><path
             id="path102"
             style="fill:#8f1a43;fill-opacity:1;fill-rule:nonzero;stroke:none"
             d="M 0,0 C 1.31,0 2.189,0.781 2.189,2.112 2.189,3.443 1.31,4.225 0,4.225 H -1.375 V 0 Z m -3.554,5.963 h 3.642 c 2.553,0 4.302,-1.485 4.302,-3.851 0,-2.365 -1.749,-3.85 -4.302,-3.85 h -3.642 z" /></g><g
           transform="translate(23.7686,6.1387)"
           id="g104"><path
             id="path106"
             style="fill:#8f1a43;fill-opacity:1;fill-rule:nonzero;stroke:none"
             d="M 0,0 H -1.21 V -2.255 H 0 c 0.902,0 1.354,0.418 1.354,1.122 C 1.354,-0.418 0.902,0 0,0 M -0.021,-3.938 H -1.21 v -2.046 h -2.179 v 7.701 h 3.521 c 2.101,0 3.422,-1.089 3.422,-2.85 0,-1.133 -0.55,-1.969 -1.507,-2.431 l 1.661,-2.42 H 1.375 Z" /></g><g
           transform="translate(37.0255,1.8379)"
           id="g108"><path
             id="path110"
             style="fill:#8f1a43;fill-opacity:1;fill-rule:nonzero;stroke:none"
             d="m 0,0 v -1.684 h -6.184 v 7.702 h 6.04 V 4.334 H -4.027 V 3.036 h 3.422 V 1.408 H -4.027 V 0 Z" /></g><g
           transform="translate(40.0909,0.8477)"
           id="g112"><path
             id="path114"
             style="fill:#8f1a43;fill-opacity:1;fill-rule:nonzero;stroke:none"
             d="m 0,0 0.715,1.606 c 0.682,-0.451 1.65,-0.759 2.541,-0.759 0.902,0 1.255,0.253 1.255,0.627 0,1.221 -4.379,0.33 -4.379,3.19 0,1.376 1.122,2.498 3.41,2.498 1.002,0 2.035,-0.231 2.795,-0.672 L 5.666,4.873 C 4.929,5.27 4.202,5.468 3.531,5.468 2.618,5.468 2.288,5.159 2.288,4.774 2.288,3.598 6.656,4.478 6.656,1.639 6.656,0.297 5.533,-0.848 3.245,-0.848 1.98,-0.848 0.726,-0.506 0,0" /></g><g
           transform="translate(49.5518,0.8477)"
           id="g116"><path
             id="path118"
             style="fill:#8f1a43;fill-opacity:1;fill-rule:nonzero;stroke:none"
             d="m 0,0 0.715,1.606 c 0.682,-0.451 1.65,-0.759 2.541,-0.759 0.902,0 1.255,0.253 1.255,0.627 0,1.221 -4.379,0.33 -4.379,3.19 0,1.376 1.122,2.498 3.41,2.498 1.002,0 2.035,-0.231 2.795,-0.672 L 5.666,4.873 C 4.929,5.27 4.202,5.468 3.531,5.468 2.618,5.468 2.288,5.159 2.288,4.774 2.288,3.598 6.656,4.478 6.656,1.639 6.656,0.297 5.533,-0.848 3.245,-0.848 1.98,-0.848 0.726,-0.506 0,0" /></g><g
           transform="translate(63.9444,3.2568)"
           id="g120"><path
             id="path122"
             style="fill:#8f1a43;fill-opacity:1;fill-rule:nonzero;stroke:none"
             d="M 0,0 -0.99,2.464 -1.98,0 Z m 0.638,-1.606 h -3.257 l -0.605,-1.497 h -2.222 l 3.399,7.702 h 2.146 l 3.41,-7.702 H 1.243 Z" /></g><g
           transform="translate(75.13,4.1699)"
           id="g124"><path
             id="path126"
             style="fill:#8f1a43;fill-opacity:1;fill-rule:nonzero;stroke:none"
             d="m 0,0 h 1.925 v -3.19 c -0.891,-0.638 -2.112,-0.98 -3.235,-0.98 -2.453,0 -4.246,1.661 -4.246,4.005 0,2.344 1.793,4.005 4.29,4.005 1.442,0 2.608,-0.495 3.368,-1.408 L 0.715,1.177 c -0.528,0.583 -1.133,0.858 -1.87,0.858 -1.321,0 -2.2,-0.869 -2.2,-2.2 0,-1.298 0.879,-2.2 2.177,-2.2 0.407,0 0.793,0.077 1.178,0.253 z" /></g><g
           transform="translate(86.9493,1.8379)"
           id="g128"><path
             id="path130"
             style="fill:#8f1a43;fill-opacity:1;fill-rule:nonzero;stroke:none"
             d="m 0,0 v -1.684 h -6.183 v 7.702 h 6.04 V 4.334 H -4.026 V 3.036 h 3.422 V 1.408 H -4.026 V 0 Z" /></g><path
           id="path132"
           style="fill:#020219;fill-opacity:1;fill-rule:nonzero;stroke:none"
           d="m 17.47,27.569 h 3.564 V 12.167 H 17.47 Z" /><g
           transform="translate(55.7603,27.5693)"
           id="g134"><path
             id="path136"
             style="fill:#020219;fill-opacity:1;fill-rule:nonzero;stroke:none"
             d="m 0,0 v -15.402 h -3.564 v 6.314 h -6.998 v -6.314 h -3.564 V 0 h 3.564 v -6.073 h 6.998 V 0 Z" /></g><g
           transform="translate(72.1919,19.8682)"
           id="g138"><path
             id="path140"
             style="fill:#020219;fill-opacity:1;fill-rule:nonzero;stroke:none"
             d="m 0,0 c 0,2.927 -2.068,4.929 -4.819,4.929 -2.75,0 -4.818,-2.002 -4.818,-4.929 0,-2.927 2.068,-4.929 4.818,-4.929 C -2.068,-4.929 0,-2.927 0,0 m -13.246,0 c 0,4.576 3.565,7.965 8.427,7.965 4.841,0 8.427,-3.366 8.427,-7.965 0,-4.599 -3.586,-7.965 -8.427,-7.965 -4.862,0 -8.427,3.388 -8.427,7.965" /></g><g
           transform="translate(86.731,28.3172)"
           id="g142"><path
             id="path144"
             style="fill:#020219;fill-opacity:1;fill-rule:nonzero;stroke:none"
             d="m 0,0 h -2.684 l 2.97,3.169 H 3.983 Z M 6.381,-0.748 V -16.15 H 3.455 l -7.68,9.351 v -9.351 h -3.52 v 15.402 h 2.949 l 7.656,-9.351 v 9.351 z" /></g><g
           transform="translate(12.2699,16.6164)"
           id="g146"><path
             id="path148"
             style="fill:#020219;fill-opacity:1;fill-rule:nonzero;stroke:none"
             d="m 0,0 c -1.011,-1.107 -2.26,-1.677 -3.732,-1.677 -2.883,0 -4.929,2.024 -4.929,4.929 0,2.904 2.046,4.928 4.929,4.928 1.477,0 2.729,-0.573 3.742,-1.668 l 2.391,2.006 c -1.453,1.741 -3.663,2.699 -6.31,2.699 -4.796,0 -8.361,-3.323 -8.361,-7.965 0,-4.643 3.565,-7.965 8.339,-7.965 2.663,0 4.868,0.954 6.321,2.708 z" /></g><g
           transform="translate(36.4823,16.6164)"
           id="g150"><path
             id="path152"
             style="fill:#020219;fill-opacity:1;fill-rule:nonzero;stroke:none"
             d="m 0,0 c -1.011,-1.107 -2.26,-1.677 -3.732,-1.677 -2.883,0 -4.929,2.024 -4.929,4.929 0,2.904 2.046,4.928 4.929,4.928 1.477,0 2.729,-0.573 3.742,-1.668 l 2.391,2.006 c -1.453,1.741 -3.663,2.699 -6.31,2.699 -4.796,0 -8.361,-3.323 -8.361,-7.965 0,-4.643 3.565,-7.965 8.339,-7.965 2.663,0 4.868,0.954 6.321,2.708 z" /></g></g></g></g></svg>